<?xml version="1.0" encoding="UTF-8"?>
<svg xmlns="http://www.w3.org/2000/svg" version="1.2" viewBox="0 0 4252 1219" width="4252" height="1219">
  <title>LeadFitnesLogoRed-ai</title>
  <style>
		.s0 { fill: #a21f22 } 
	</style>
  <g id="Layer 1">
    <g id="&lt;Group&gt;">
      <g id="&lt;Group&gt;">
        <path id="&lt;Compound Path&gt;" fill-rule="evenodd" class="s0" d="m2788.2 482.6c-24.1-7.4-47.2-5-49.7-5-2.5 0-2.5 0.9-4.1 2.5h-8.3c-2.5 0-3.3 0.9-4.1 0.9-2.5 0.8-4.2 1.6-5.8 4.1 0 0-4.2 0.8-5.8 0-5.8 3.3-8.3 5-15.8 9.1 0-0.8-4.1 1.7-4.1 3.3-0.8 4.1-7.4 4.1-10.7 5.8-7.5 5-14.1 7.4-19.9 15.7-3.3 1.7-14.1 12.4-21.5 20.7-17.4 7.5-28.1 32.3-39.7 40.5-3.3 5-9.1 10.8-11.6 16.6-2.5 1.7-8.3 5.8-9.1 12.4-0.8 0-2.5 0.8-3.3 1.7-1.7 0.8-3.3 4.1-3.3 6.6-2.5 3.3-9.1 6.6-7.5 12.4-1.6 5.8-6.6 9.1-9.1 14.1v3.3c1.7 2.4 10.8 6.6 14.1 6.6l128.2 0.8h3.3c5-3.3 10-9.1 14.9-14 4.2 0.8 5.8 2.4 8.3 2.4 1.7 0 5-2.4 8.3-4.1 1.6 0.8 1.6 0.8 3.3 0.8 2.5 0 6.6-1.6 9.1-5.8 1.7 0.9 5 2.5 8.3 3.3 9.1-10.7 18.2-9.9 28.1-15.7h1.7c0 6.6 0.8 12.4 0 18.2-3.3 1.7-10 5-14.1 5-6.6 4.1-18.2 11.6-19.9 21.5-1.6 0.8-3.3 4.1-4.1 6.6-3.3 0.8-5.8 2.5-7.5 6.6-2.4 2.5-3.3 5.8-4.1 9.1-3.3-0.8-7.4 0.9-10.7 3.3 0 2.5 0.8 4.2 0.8 7.5-4.2 4.1-10.8 8.3-15.7 13.2-4.2 11.6-7.5 14.9-20.7 33.1-5 6.6-6.6 14.1-9.1 20.7-1.7 2.5-5 4.2-7.5 5.8-0.8 1.7-0.8 5.8-0.8 9.1-7.4 9.9-10.8 16.6-9.9 24-1.7 3.3-6.7 5.8-10 9.1v11.6l2.5 2.5h2.5c2.5 0 4.1-5 5.8-5h8.3c3.3-3.3 8.3-7.4 13.2-12.4 2.5-0.8 6.6-0.8 10.8-0.8 7.4-4.2 14-13.3 22.3-13.3 4.1-3.3 11.6-5.8 11.6-2.5 0 8.3-28.1 31.5-42.2 41.4-5.8 2.5-13.2 6.6-19.9 10.8-6.6 8.3-14 12.4-14.9 21.5-3.3 2.5-9.1 2.5-14 4.1-4.2 5-6.6 11.6-10 16.6-4.9 4.9-11.5 8.2-16.5 14.9-4.1 2.4-9.9 11.5-14.1 15.7-2.4 1.6-5.8 1.6-9.1 2.5-5.8 8.2-9.1 21.5-18.2 22.3-4.1 7.5-2.4 18.2-7.4 20.7 0 0-1.7-0.8-9.1-0.8-3.3 1.6-6.6 4.1-8.3 7.4h-3.3c-0.8 0.8-2.5 3.3-3.3 5l-0.8-1.7c-4.2 5.8-23.2 23.2-26.5 23.2h-5c-4.1-5.8-11.6-16.6-11.6-19.9v-4.1c6.7-7.4 11.6-14.1 17.4-23.2 6.6-3.3 18.2-17.3 19.9-25.6 2.5-2.5 5.8-6.6 9.1-10 0.8-3.3 2.5-8.2 2.5-10.7 4.1-3.3 13.2-7.5 12.4-18.2 3.3-1.7 9.1-8.3 10.7-12.4 0.9-9.1 12.4-23.2 17.4-32.3 6.6-12.4 17.4-29.8 24-41.4 6.6-13.2 11.6-30.6 27.3-49.6 6.6-26.5 18.2-33.1 18.2-53.8 0-14.9-6.6-18.2-15.7-19h-44.7c-1.7 0-26.5 4.1-29 4.1-1.6 0-2.4-1.6-4.9-2.5-2.5 2.5-6.6 5-9.1 5h-11.6c-4.1 3.3-12.4 10.8-17.4 15.7-3.3 3.3-6.6 10-11.6 14.9-1.6 0.8-1.6 4.1-1.6 6.6-8.3 11.6-18.2 30.6-29 46.4-7.4 12.4-14.9 23.1-17.4 34.7-2.4 2.5-9.9 7.5-10.7 14.1-4.2 5-8.3 12.4-14.9 19-0.8 1.7-0.8 5-2.5 7.5-1.6 4.1-6.6 8.2-7.4 13.2-2.5 0.8-4.2 2.5-6.7 5 1.7 6.6-5.7 12.4-9.1 15.7-3.3 11.6-15.7 28.9-24.8 41.4-1.6 4.9-3.3 9.9-7.4 14.9-1.7 4.1-2.5 9.1-4.2 13.2-3.3 0.8-5.8 3.3-7.4 5.8-6.6 13.2-10.8 28.1-19.9 38.9-2.4 6.6-6.6 12.4-7.4 18.2 0 3.3-0.8 8.2-1.7 10.7 0 0-1.6 0.9-2.5 0.9-1.6-0.9-3.3-2.5-4.9-4.2-1.7 1.7-2.5 1.7-4.2 3.3 0 3.3 0 8.3-0.8 12.4-0.8 3.4-5.8 5.8-9.1 10-2.5 4.9-4.1 9.9-6.6 14 0 1.7-4.1 3.3-7.4 5.8-4.2 10-8.3 19.9-13.3 30.6 0 5 2.5 11.6 1.7 18.2-1.7 0.9-4.2 2.5-5.8 2.5-3.3 7.5-17.4 14.9-25.7 19.9-4.1 4.1-9.1 9.9-14 17.4-3.3 0.8-7.5 1.6-11.6 3.3-13.3 17.3-29 35.5-43.9 53.7-4.1-2.4-9.1-6.6-13.2-8.2q-3.7 1.2-9.9 2.5l-1.7-4.2 27.3-61.2c3.3-0.8 5.8-0.8 8.3-3.3v-3.3c0-3.3-1.7-8.3-4.2-13.3 0.9-2.4 4.2-5.8 7.5-9.1 0-2.4 0-4.9-0.8-9.1 2.5-3.3 5.8-7.4 7.4-11.6 0-0.8-0.8-2.4-1.6-3.3 3.3-4.1 6.6-7.4 7.4-12.4 3.3-3.3 5.8-7.4 7.4-10.7 0-3.3 0-8.3-1.6-13.3 17.4-9.1 25.6-23.1 32.3-36.4 1.6-1.6 3.3-3.3 6.6-3.3 6.6 3.3 14.1 0 22.3 5.8 2.5-3.3 5-5 7.5-7.4 0-1.7 0.8-3.3 0-7.5 2.4-2.5 5.8-5.8 8.2-8.3 17.4-30.6 34.8-62.8 53-93.5 0.8-2.4 1.7-7.4 2.5-10.7 3.3-3.3 8.3-8.3 12.4-12.4 9.1-14.9 16.5-30.6 24.8-46.4 5-7.4 13.2-18.2 15.7-27.3 5-8.2 10.8-17.3 14.1-25.6 4.1-2.5 8.3-11.6 12.4-17.4 4.1-10.7 9.1-15.7 11.6-26.5 1.6-1.6 5-4.9 6.6-7.4 5-9.1 9.9-19 14.9-28.1v-5.8c0-2.5-5-6.7-9.1-10.8-5.8-2.5-13.2-5.8-19-9.1-10.8-2.5-22.4-5.8-34-9.9 0 0-0.8-1.7-0.8-2.5 3.3-1.7 14.1-9.1 16.6-9.1h24.8l3.3 1.6h42.2c4.1 0 14.9-15.7 17.4-22.3 6.6-8.3 8.2-17.2 17.4-25.5 1.6-7.4 7.4-10.8 13.2-18.2 1.6-3.3 5-9.8 6.6-12.3 14.9-18.2 30.6-37.9 52.1-63.5 2.5-1.7 5.8-3.4 7.5-5.7 0.8-2.5 2.5-6.6 4.9-9.1 1.7 0 3.4-1.7 5.8-2.5 11.6-13.2 27.3-31.3 36.4-35.4 2.5-0.8 6.7-5 7.5-7.5 7.4-0.8 11.6-5.8 19-14.9 8.3-2.5 19-11.4 28.2-10.6 3.3-1.6 6.6-5.8 9.1-9.1 9.1-4.1 28.1-14.9 29.7-14.9 2.5 0 7.5 2.5 10 3.3 3.3-4.1 7.4-8.2 10.7-12.4 4.2 1.7 9.1 3.3 12.4 2.5 1.7 0 5-1.7 8.3-4.1 5 0 10.8-0.9 16.6-3.3v9.1c0 3.3-6.7 30.6-6.7 33 0 2.5 0 3.4 0.9 5.8 1.6 5.8 5.8 6.7 9.9 9.1-1.7 11.6-0.8 24-5 34.8-2.5 5.8-6.6 8.3-11.5 6.6zm19-4.1l4.9-5.8 14.9-18.2c2.5-7.5 12.4-20.7 28.2-24.8 11.6 0 22.3 3.3 33.9 4.9 2.5 0.9 4.1 0.9 5.8-0.8 0.8 1.7 3.3 1.7 4.9 1.7l5 7.4v4.1c-14 14.1-28.1 27.3-44.7 43.9-1.6 5.8-0.8 9.1-3.3 19-1.6 3.3-4.9 5-8.2 6.6-0.9 0.9-2.5 3.3-2.5 4.2-7.5 2.5-15.8 11.6-24 17.3-2.5 1.7-7.5 2.5-10 2.5h-4.9c-5 1.7-9.1 10-12.4 14.9-2.5 0-6.6 1.7-8.3 4.2-0.8 0-5.8 3.3-9.1 3.3l-24.8 38c-5 5-12.4 7.5-17.4 7.5-1.7 0-4.1-4.2-6.6-5.8 0-0.8 0.8-3.3 1.6-5.8 8.3-11.6 27.3-33.9 33.1-43 1.7-0.9 6.6-8.3 10.8-14.1 0-2.5 3.3-5.8 3.3-9.1 0-2.5-3.3-9.1-4.1-14.1l23.9-28.1zm305.4 27l-7.5 12.4-41.4 45.6c-16.5 28.9-45.5 58.7-68.6 96.8l3.3 11.5c28.9 3.3 61.6 9.6 127.7 14.5l-0.3-1.6 19-19.1 47.2-4.1 14.9-4.1 47.1-11.6 10.8 0.8 0.8 5-56.2 55.4-33.1 38.9-8.3 20.7-5.8 9.1-7.5 9.9 2.5 1.7 9.1-1.7 93.5-66.2 38.1-18.2 30.6-13.2 23.2-9.9 19.8 1.6 7.5 15.7-5.8 19.9 3.3 4.1-8.3 6.6h-1.6l-1.7 14.1-23.2 41.4-8.2 11.6-5 17.3-16.5 25.8 7.4 2.5 7.4-4.1 6.7-2.5 33.1-15 12.4-3.4c9.1-3.3 21.5-7.4 28.1-9.1 7.5-3.3 11.6-4.9 17.4-6.6 5-1.6 7.4-2.5 7.4-0.8 0 1.6-2.4 3.3-7.4 5.8-5 3.3-10.8 5.8-16.6 9.1-11.5 6.6-23.1 13.2-34.7 20l-10.8 9.9-6.6 0.8-27.3 23.9-9.1 1.6-33.9 30.7-13.3 4.9-19 16.4-15.7 12.4-35.6 9.2-0.8 2.4-43.9 15.8-11.6-9.1 2.5-6.7 36.4-26.4 19.9-24.7 1.7-6.6 14.8-10 5-10.6 16.6-19 2.4-8.3 19.1-28.3 28.9-57.1 4.2-11.5 9.9-10.8-1.7-9.9-4.9-2.5-29.8 11.6-54.6 38.9-9.9 8.2-19.9 18.2-23.2 23.2-15.7 13.4-13.2 15.7-14.1 13.3-29 34.6-9.9 14.8-15.7 15.6-6.6 12.4-24.8 22.4-16.6 6.6-21.5 4.1-3.3-1.6 0.8-10.8-2.5-12.4 2.5-4.1-5.8-9.1 11.6-26.4 19-19.8 5.8-11.6 14.9-18.1 4.1-10.7 7.5-10v-17.5l5-14-5-15.8-2.5-2.4v-5l38.1-40.5 28.1-30.7 3.3-10.7 0.2-0.2c-74.1 3.3-96.4 7.4-127.6 14.8l-39.7 9.9-19 21.5-20.7 31.5 1.6 6.6 5.8 5.8 38.9-15.7c6.6-3.3 17.4-9.9 26.5-12.4v4.9c-41.4 34-81.1 65.5-125 104.4v5l-33.1 29.8-22.3 32.2-9.9 28.2-38.1 26.5-9.1 1.6c-4.9 6.6-19 5.8-23.1 14.9-5.8 2.5-11.6 0.8-19.1 8.3-11.6 0-24.8 1.6-38 1.6 0-2.5-3.3-9.1-3.3-14l10.7-5 4.1-5.8 1.7-8.3 17.4-10.7 19-33.1c19.9-24 38.9-48 61.2-70.3l1.7-5.8 9.9-9.1 2.5-16.6c4.1-3.3 12.4-8.3 19.9-11.6l-1.7-9.1c19.9-29.9 43-62.2 66.2-92.8l-5.8-17.4-5.8-4.1-79.4-3.3-9.9-13.4-2.5-12.4 2.5-6.6c9.9-9.9 47.9-17.4 64.5-19.9l15.7 17.4 14.9 9.9 11.6-0.8c7.4-11.6 23.2-21.5 28.9-37.2l8.3-3.3 48.8-61.3 13.3-9.1c5.8-9.1 9.9-15.7 19-24.8l7.4-4.1c2.5-10.8 15.8-23.2 22.4-33.1l15.7-9.9c15.7-4.2 34.8-12.5 54.6-12.5h26.5l-2.5 15.8zm608.1 140.9l-7.4 20.7 0.8 0.8-24.8 46.3-19 26.5-9.1 14.9-1.7 1.7 13.3 14.9-24.9 19-17.3 4.1-93.5 40.6-6.7 4.1-30.6 10.8-14 13.2-11.6 6.6-7.5 9.9v19.1l7.5 14 33.1-1.6 29.8-12.4 48.8-29 8.2-4.9 29-18.2 33.9-27.3 14.1-10.8 4.1 3.3-8.2 25.7-3.3 4.1-14.1 0.8-2.5 8.3-12.4 1.6-10.8 10-35.5 27.3-53 33.1-96.8 40.5-30.6 3.3-15.7-4.1-7.5-4.1-7.4-14.1-1.7-30.6 15.7-38.1-6.6-11.6 17.4-8.2 2.5-5.8 15.7-21.5 9.9-16.6-0.8-2.5 36.4-36.4 27.3-27.3 0.8-9.1 29-24 18.2-19 10.8-6.6 15.7-13.3 33.1-13.2 28.9-14.9 15.8-5.8 40.5-11.6h28.1l6.6 2.5zm-98.4 54.6l-19.9 5-30.6 20.7-15.7 22.3-12.4 8.3-19.9 26.4-23.1 34 21.5 1.6 1.6-1.6 22.4-6.6 36.4-16.6 46.3-30.6 11.6-23.2 2.5-16.5-3.3-23.2zm232.5 82.6l-7.5 23.2 0.8 4.1-9.1 19.1-13.2 25.5-11.6 32.2-4.1 6.6v4.2l10.7 5 37-2.2 6.2-3.4 0.7-1.9h3.4l25.5-7.2 1.9 0.9 2.3-1.1h2.5l-1 3 23.3 11.3 24 9.1 50.5-1.7 14.9-28.9 9.9-20.7 3.3-20.7 19-49.6 10-15.7 24.8-62.9 18.2-37.3 18.2-33.1 15.7-7.4 5-10.8 10.7-3.3h17.4l28.1-19.8 14.9-2.5c5.8 0 14.9-0.8 19.9-0.8 5.8 0 9.9 0.8 14.9 4.1 3.3 1.6 4.1 7.4 3.3 12.4-2.5 11.6-0.8 23.2-0.8 34.8l-26.5 47.1-16.6 22.4-19.8 29.7-8.3 17.4-17.4 29c-1.6 5.8-3.3 9.9-7.4 9.9-6.6-19.9-10.8-28.1-30.6-35.6l-20.7 15.6-7.5 23.2 0.9 4.1-9.1 19.1-13.3 25.5-11.6 32.2-4.1 6.6v4.2l10.8 5 42.2-2.5 1.6-5h14.1l2.5-2.5 11.5-2.5 5-2.4h2.5l-2.5 7.4-29.8 18.3-21.5 7.5-12.4 3.3-15.7 4.1-13.3 6.7-7.4 0.8-41.4 39.8-43.8 27.3-25.7 5-21.5-1.7-7.4 3.4-11.6-3.4-18.2-14.8-10-19.1v-4.9l-2.4-0.9h-2.5l1.6-4.1-11.6-20.7-15.7-11.6-3.4-3.9-8.2 2.1-13.2 6.7-7.4 0.8-41.4 39.8-43.9 27.3-25.6 5-21.5-1.7-7.5 3.4-11.6-3.4-18.2-14.8-9.9-19.1v-4.9l-2.5-0.9h-2.5l1.7-4.1-11.6-20.7-15.7-11.6-5.8-6.6v-2.5l30.6-19 12.4-6.6 26.5-7.5 29 14.1 24 9.1 50.4-1.7 14.9-28.9 10-20.7 3.3-20.7 19-49.6 9.9-15.7 24.8-62.9 18.3-37.3 18.2-33.1 15.7-7.4 4.9-10.8 10.8-3.3h17.4l28.1-19.8 14.9-2.5c5.8 0 14.9-0.8 19.9-0.8 5.7 0 9.9 0.8 14.9 4.1 3.3 1.6 4.1 7.4 3.3 12.4-2.5 11.6-0.9 23.2-0.9 34.8l-26.4 47.1-16.6 22.4-19.9 29.7-8.2 17.4-17.4 29c-1.7 5.8-3.3 9.9-7.4 9.9-6.7-19.9-10.8-28.1-30.7-35.6zm-115 157.4l-4.1-0.8-38.1 0.8-26.4 4.1-1.7 3.3 14.9 14.9 14.1 5h22.3l14.9-12.4 5.8-14.9zm242.4 0l-4.1-0.8-38.1 0.8-26.5 4.1-1.6 3.3 14.9 14.9 14 5h22.4l14.9-12.4 5.8-14.9z"></path>
        <path id="&lt;Compound Path&gt;" fill-rule="evenodd" class="s0" d="m675.7 950.9l-3-155.7h241.1l0.8 42.3h-114l0.3 14.9h103.4l0.8 39.9h-103.4l0.3 16.4h117l0.8 42.2zm248.8 0l125.5-155.7h144.3l129.1 155.7h-139.4l-11.9-19.6h-97.8l-10.7 19.6zm170.8-56.6h54l-11.5-17.6c-5.6-8.9-9.4-15.8-11.4-20.6q-3.1-7.3-4-13.6h-2.2c-0.4 4.2-1.6 8.8-3.5 13.6q-2.8 7.2-10.6 20.6zm248.1 56.5l-3-155.6h104.9q50 0 85.4 2.3 35.4 2.5 57.6 7.5 47 10.6 72.4 28.1 25.3 17.6 25.7 40 0.5 22.3-24.1 39.8-24.5 17.4-71.3 28.1c-15.2 3.4-34.6 5.9-58 7.5q-35.2 2.3-94.3 2.3zm127.7-47.5q43.8-0.1 63.9-7.4 20-7.2 19.7-22.8-0.3-15.2-19.8-22.6-19.5-7.5-59.3-7.5h-5.7zm271.3 47.5l-3-155.6h241.1l0.9 42.2h-114.1l0.3 15h103.5l0.7 39.9h-103.4l0.3 16.3h117l0.8 42.2zm296.6 0l-3.1-155.6h163.1c47.3 0 83.5 4.5 108.6 13.5q37.7 13.5 38.2 38.9c0.2 11.1-5.9 20.1-18.3 27.3-12.4 7.2-29.3 11.4-50.6 12.6l97.5 63.3h-145.3l-64.1-51.3 1.1 51.3zm124.8-115.5l0.6 30.4h20.2c12.3 0 21.7-1.3 28.4-3.9 6.6-2.6 9.8-6.3 9.7-11.1q-0.1-7.5-10.2-11.5-10.1-4-28.5-3.9z"></path>
        <path id="&lt;Compound Path&gt;" fill-rule="evenodd" class="s0" d="m256.2 383.7l125.9 21.4c-101 139.3-177 271.4-198.4 387.9l462.6-1.9-0.7 160.3h-487.5c-105.9-1.9-163.5-107.8-149.3-179.1 44.1-167.9 135.1-288.9 247.4-388.6zm31.1-175.4l98 179.4-126.1-19.5-48.4-95.8c-29.3-58-58.4-104.5-37.3-122.2 21.1-17.7 82.7 1.1 113.8 58.1z"></path>
        <path id="&lt;Compound Path&gt;" fill-rule="evenodd" class="s0" d="m521.2 10.2c29 0 52.5 27.1 52.5 60.7 0 33.5-23.5 60.6-52.5 60.6-29 0-52.5-27.1-52.5-60.6 0-33.6 23.5-60.7 52.5-60.7zm-100.5 511.1c-14.3 17.4 185.3 174.5 160.9 170.6-53.8-8.7-169-78-204.3-143.4-35.4-65.3 17.6-90.2 103.3-126.9 85.7-36.7 189.3-73.5 166.7-2.7-15 46.9-190 57.9-226.6 102.4zm44.2-305.8c1.3 4.7-50.3 0.2-74.4-11.5-17.3-8.4-32.5-84.2-44.5-157.6-2.8-16.9 38.4 130.7 53.7 130.2 33-1.1 74.9-25.1 74.9-25.1-7.7 16.6-14 48.1-9.7 64zm245.1-50.6c41.3 34.6 52.4 109.4 62.2 163.7-9.7-15.7-54.9-122.6-67.4-127.4-30.6-12-149.9-8-146.7-42.5 4-43.8 116.6-23.4 151.9 6.2zm-57.7 275.6c13.9 117.5 49.1 229.7 117.3 333.6-81.6-43.1-140.4-153.8-189.4-302.8 29.8 1.2 53.2-13 72.1-30.8zm-104.9-299.8c0.6 53.3 19.7 54 81.8 60.7-1.4 44.8 6.5 121.1 5.1 165.9-29.7-5.8-56.7 4.4-83 11.9-71.1-79.7-87-146.2-60.4-238.4 18.4 8 37.9 9.3 56.5-0.1z"></path>
      </g>
    </g>
  </g>
</svg>
